<svg width="72" height="28" viewBox="0 0 72 28" fill="none" xmlns="http://www.w3.org/2000/svg">
<path d="M8.00004 17.3107L11.42 19.3359L10.5124 15.5189L13.5339 12.9506L9.55505 12.614L8.00004 9.01953L6.44503 12.614L2.46619 12.9506L5.48214 15.5189L4.58012 19.3359L8.00004 17.3107Z" fill="#FB8200"/>
<path d="M22 17.3107L25.42 19.3359L24.5124 15.5189L27.5339 12.9506L23.5551 12.614L22 9.01953L20.445 12.614L16.4662 12.9506L19.4821 15.5189L18.5801 19.3359L22 17.3107Z" fill="#FB8200"/>
<path d="M36 17.3107L39.42 19.3359L38.5124 15.5189L41.5339 12.9506L37.5551 12.614L36 9.01953L34.445 12.614L30.4662 12.9506L33.4821 15.5189L32.5801 19.3359L36 17.3107Z" fill="#FB8200"/>
<path d="M50 17.3107L53.42 19.3359L52.5124 15.5189L55.5339 12.9506L51.5551 12.614L50 9.01953L48.445 12.614L44.4662 12.9506L47.4821 15.5189L46.5801 19.3359L50 17.3107Z" fill="#FB8200"/>
<path d="M64 15.8759L61.9193 17.1321L62.4672 14.7636L60.6299 13.1698L63.0538 12.9651L64 10.7294L64.9463 12.9651L67.3702 13.1698L65.5329 14.7636L66.0808 17.1321L64 15.8759ZM69.5339 12.4726L65.5551 12.135L64 8.46606L62.445 12.135L58.4662 12.4726L61.4821 15.0901L60.5801 18.9804L64 16.9163L67.42 18.9804L66.5124 15.0901L69.5339 12.4726Z" fill="#FB982E"/>
</svg>
